<svg version="1" xmlns="http://www.w3.org/2000/svg" width="960" height="960" viewBox="0 0 720.000000 720.000000"><path d="M378.9 74.4c-.3.3-7.3.6-15.7.7-8.5.1-14.9.5-14.6 1 .3.5 0 .9-.5.9-.6 0-1.1-.5-1.1-1 0-.6-.5-1-1.1-1-.5 0-.7.6-.3 1.2.5.8 0 .7-1.1-.2-1.1-.9-1.6-1-1.1-.3.5 1-.8 1.3-5.6 1.4-3.5 0-7.9.2-9.8.3-13.9 1.1-23.9 1.9-26.5 2.1-1.6.1-6.6.6-11 .9-4.4.4-9.1.9-10.5 1.1-1.4.2-6.1.7-10.5 1.1-4.4.3-8.2.8-8.5.9-.3.2-4.3.6-9 1s-8.7.9-9 1c-.3.2-3.7.6-7.5 1-3.9.4-7.9.9-9 1.1-1.1.3-5.6.9-10 1.5-4.4.5-9.8 1.2-12 1.5-2.2.3-6 .8-8.5 1.1-12.6 1.3-17 1.9-27.2 3.9-4.2.8-8.3 1.4-9 1.3-.7-.1-2 0-2.8.4-.8.3-5.3 1.7-10 3.2-18.7 5.9-33.4 16.4-39.4 28.2-11.8 23.3-10.5 65.6 4 130.2 1.9 8.6 8.6 36.1 14.9 61.1 10.2 40.7 15.9 65.7 16.7 73 .3 2.4 0 2.6-13.4 5.2-31.3 6.2-60.4 18.4-80.7 33.7-4.1 3.1-8.2 6-9.2 6.6-1.1.5-1.9 1.5-1.9 2 0 .6-1.6 2.7-3.6 4.6-8.6 8.3-15.7 19.8-19.5 31.4-1.8 5.6-2.3 9.2-2.2 17.5.1 9.1.5 11.8 3.3 20 1.8 5.2 3.5 9.7 3.9 10 .8.6 3.5 6.3 3.3 7.1-.1.7 28.1 17.9 44.3 27 28.2 15.7 73.9 37.1 100.5 47 61.4 22.8 118.4 35.7 176.8 40 21.1 1.5 72.8.7 91.2-1.5 77.4-9.2 144.1-32.3 210.1-72.8 24.6-15.2 63.6-43.9 62.3-46-.3-.5.3-2.8 1.4-5.2 3.3-7 5.4-16.6 5.4-24.6.1-10.9-1.9-18-7.7-28.5-4.1-7.3-6.5-10.4-13.2-17.4-2.9-3-5.3-5.7-5.3-6-.1-.3-1.4-1.5-3-2.6s-7.1-4.9-12.2-8.3c-22-15.2-55.4-28.5-86.4-34.5l-11-2.1 2.2-10c1.2-5.6 7.4-30.4 13.8-55.1 22.8-88.5 28-117.6 28.1-156.5 0-26.3-.7-30.7-7-43.7-14.2-28.9-60-47.1-136-53.8-17.9-1.6-97.4-3.3-98.6-2.1zM156.8 426.1c51.7 22.6 103.2 36.1 158.4 41.5 23.4 2.3 66.2 2.3 89.6 0 55.2-5.4 106.7-18.9 158.4-41.5 6.4-2.8 11.9-5.1 12.1-5.1.9 0-1.5 15.3-3.9 24.5-2.9 11.7-10.9 28.9-18.2 39.1-29.2 41-87.2 68.8-157.7 75.4-14.1 1.3-48.8 1.3-63 0-83.4-7.8-149.4-43.3-175-94-5.5-11-8.9-20.5-10.8-30.5-1.8-9.3-2.5-14.5-2-14.5.2 0 5.7 2.3 12.1 5.1zM271.3 75.7c.9.2 2.5.2 3.5 0 .9-.3.1-.5-1.8-.5-1.9 0-2.7.2-1.7.5zM277.8 75.7c.6.2 1.8.2 2.5 0 .6-.3.1-.5-1.3-.5-1.4 0-1.9.2-1.2.5zM255.8 76.7c.6.2 1.8.2 2.5 0 .6-.3.1-.5-1.3-.5-1.4 0-1.9.2-1.2.5zM243.8 77.7c.7.3 1.6.2 1.9-.1.4-.3-.2-.6-1.3-.5-1.1 0-1.4.3-.6.6zM235.3 78.7c.9.2 2.3.2 3 0 .6-.3-.1-.5-1.8-.5-1.6 0-2.2.2-1.2.5zM226.8 79.7c.7.3 1.6.2 1.9-.1.4-.3-.2-.6-1.3-.5-1.1 0-1.4.3-.6.6zM220.8 80.7c.7.3 1.6.2 1.9-.1.4-.3-.2-.6-1.3-.5-1.1 0-1.4.3-.6.6zM213.8 81.7c.7.3 1.6.2 1.9-.1.4-.3-.2-.6-1.3-.5-1.1 0-1.4.3-.6.6zM202.8 83.7c.7.3 1.6.2 1.9-.1.4-.3-.2-.6-1.3-.5-1.1 0-1.4.3-.6.6zM198.8 84.7c.7.3 1.6.2 1.9-.1.4-.3-.2-.6-1.3-.5-1.1 0-1.4.3-.6.6z"/><path d="M25 445c-.8.5-1 1-.5 1 .6 0 1.7-.5 2.5-1s1.1-1 .5-1c-.5 0-1.7.5-2.5 1zM705.7 450.1c.7.7 1.5 1 1.8.7.3-.3-.2-.9-1.2-1.2-1.4-.6-1.5-.5-.6.5zM3.5 454c-1.6.7-1.7.9-.3.9.9.1 2-.4 2.3-.9.7-1.1.7-1.1-2 0zM717.9 517.7c-1.3 1.6-1.2 1.7.4.4 1.6-1.3 2.1-2.1 1.3-2.1-.2 0-1 .8-1.7 1.7zM711.4 523.2l-1.9 2.3 2.3-1.9c2.1-1.8 2.7-2.6 1.9-2.6-.2 0-1.2 1-2.3 2.2z"/></svg>